<svg xmlns="http://www.w3.org/2000/svg" height="800" width="1200" viewBox="-22.35 -9.987675 193.7 59.92605"><g fill-rule="evenodd" fill="none"><path fill="#000" d="M31.2955 4.0185H8.458c-2.5608 0-4.6366 2.0759-4.6366 4.6367 0 2.5608 2.0758 4.6366 4.6366 4.6366h11.6438L1.3582 32.0356c-1.811 1.8104-1.811 4.7462 0 6.5571 1.8106 1.8107 4.7464 1.8107 6.557 0l18.7436-18.7436v11.6435c0 2.5608 2.0759 4.6367 4.6367 4.6367 2.5608 0 4.6366-2.0759 4.6366-4.6367V8.6552c0-2.5608-2.0758-4.6367-4.6366-4.6367"/><path fill="#FF7900" d="M44.642 35.9321h22.8375c2.5608 0 4.6367-2.0758 4.6367-4.6366 0-2.5608-2.0759-4.6367-4.6367-4.6367H55.8358L74.5794 7.9152c1.8109-1.8106 1.8109-4.7464 0-6.557-1.8107-1.811-4.7464-1.811-6.557 0L49.2786 20.1018V8.458c0-2.5608-2.0758-4.6366-4.6366-4.6366-2.5608 0-4.6367 2.0758-4.6367 4.6366v22.8375c0 2.5608 2.0759 4.6366 4.6367 4.6366"/><path fill="#000" d="M92.5 15.4802c2.6111 0 3.5927-2.246 3.5927-4.4733 0-2.3396-.9816-4.5857-3.5927-4.5857-2.611 0-3.5926 2.246-3.5926 4.5857 0 2.2272.9816 4.4733 3.5926 4.4733m0-11.5295c4.0927 0 6.5 3.0882 6.5 7.0562 0 3.8556-2.4073 6.9438-6.5 6.9438-4.0926 0-6.5-3.0882-6.5-6.9438 0-3.968 2.4074-7.0562 6.5-7.0562m7.5 4.2637h2.4323v1.808h.036c.4686-1.2241 1.7298-2.0717 2.9731-2.0717.1803 0 .3964.0379.5586.0944v2.4857c-.2344-.0565-.6127-.0941-.919-.0941-1.8737 0-2.5224 1.4123-2.5224 3.1262v4.3878H100zm13.8256 4.8372c-.4761.3853-1.4685.4037-2.3413.5505-.873.165-1.6666.4403-1.6666 1.3945 0 .9725.8132 1.211 1.7261 1.211 2.2023 0 2.2818-1.6147 2.2818-2.1834zm-6.5081-1.9265c.159-2.4403 2.5202-3.1744 4.8213-3.1744 2.0436 0 4.504.4219 4.504 2.6972v4.936c0 .8622.0991 1.7244.3572 2.1099h-2.857c-.0994-.2936-.1786-.6055-.1986-.9173-.8927.8622-2.202 1.1742-3.4522 1.1742-1.9442 0-3.4922-.899-3.4922-2.844 0-2.1468 1.7464-2.6606 3.4922-2.8809 1.7261-.2385 3.3334-.1834 3.3334-1.2477 0-1.1191-.8334-1.2843-1.8256-1.2843-1.0713 0-1.7654.4037-1.8649 1.4313zM118 8.2144h2.505v1.356h.056c.6679-1.0923 1.8186-1.6197 2.9317-1.6197 2.8022 0 3.5073 1.6008 3.5073 4.0114v5.9886h-2.635v-5.4989c0-1.6008-.464-2.3918-1.6886-2.3918-1.4289 0-2.0413.81-2.0413 2.7872v5.1035h-2.635zm17.3683 4.8589c0-1.6176-.5652-3.062-2.3585-3.062-1.5595 0-2.2417 1.3482-2.2417 2.8308 0 1.425.5459 2.9849 2.2417 2.9849 1.5792 0 2.3585-1.3289 2.3585-2.7537zM138 17.5408c0 1.6369-.585 4.4099-5.2242 4.4099-1.9881 0-4.3077-.9245-4.4443-3.1967h2.7484c.2534 1.0205 1.0918 1.3673 2.0663 1.3673 1.5402 0 2.2417-1.0399 2.2221-2.465V16.347h-.0389c-.604 1.0398-1.8129 1.5407-3.0214 1.5407-3.0214 0-4.308-2.2725-4.308-5.007 0-2.5806 1.501-4.9299 4.3276-4.9299 1.3255 0 2.339.443 3.0018 1.5985h.039v-1.329H138zm8.2318-5.6085c-.252-1.3212-.8531-2.0182-2.191-2.0182-1.745 0-2.2489 1.2843-2.2879 2.0182zm-4.4789 1.6513c.0777 1.6514.9308 2.4037 2.4625 2.4037 1.105 0 1.997-.6424 2.1712-1.2295h2.4238c-.7757 2.2388-2.4238 3.1929-4.692 3.1929-3.1601 0-5.1184-2.055-5.1184-4.991 0-2.8438 2.0746-5.009 5.1185-5.009 3.4122 0 5.0602 2.7154 4.8662 5.633zM92.5685 31.5784h.039l3.0817-9.6277H100v14h-2.8673V26.029h-.039l-3.4136 9.9217H91.32l-3.4134-9.8237h-.0392v9.8237H85v-14h4.311zm14.4221 2.409c1.813 0 2.3552-1.523 2.3552-3.0276 0-1.523-.5422-3.0458-2.3552-3.0458-1.7944 0-2.3364 1.5228-2.3364 3.0458 0 1.5046.542 3.0276 2.3364 3.0276m0-8.0367c3.0467 0 5.0094 1.9818 5.0094 5.0091 0 3.0091-1.9627 4.9909-5.0094 4.9909-3.0278 0-4.9906-1.9818-4.9906-4.9909 0-3.0273 1.9628-5.0091 4.9906-5.0091m6.0094.2637h2.505v1.356h.056c.6679-1.092 1.8186-1.6197 2.9317-1.6197 2.8022 0 3.5073 1.6008 3.5073 4.0115v5.9885h-2.6353v-5.499c0-1.6007-.4637-2.3915-1.6883-2.3915-1.4291 0-2.0413.8097-2.0413 2.787v5.1035h-2.635zm17.2318 3.718c-.252-1.3212-.8531-2.0184-2.191-2.0184-1.7447 0-2.2487 1.2846-2.2876 2.0184zm-4.4786 1.6514c.0774 1.651.9305 2.4036 2.4622 2.4036 1.105 0 1.997-.6424 2.1715-1.2295h2.4237c-.7757 2.2384-2.4237 3.1928-4.6921 3.1928-3.1602 0-5.1185-2.0553-5.1185-4.9911 0-2.8435 2.0746-5.0089 5.1185-5.0089 3.4122 0 5.0602 2.7156 4.8662 5.633zm13.1791 5.1908c-.5839 1.5434-1.5067 2.1761-3.3523 2.1761-.5461 0-1.0924-.0374-1.6385-.0932v-2.1759c.5085.0372 1.0359.1117 1.563.093.9228-.093 1.2241-1.0414.9228-1.8039L133 25.9507h2.8626l2.2034 6.5837h.0376l2.1283-6.5837H143z"/></g></svg>